<?xml version="1.0" encoding="UTF-8"?>
<svg version="1.1" xmlns="http://www.w3.org/2000/svg" width="300" height="302">
<path d="M0 0 C1.16473343 0.00455452 1.16473343 0.00455452 2.35299683 0.00920105 C4.89797812 0.02239408 7.44247601 0.05103491 9.98730469 0.08154297 C11.7637299 0.09757587 13.54015824 0.11326685 15.31658936 0.12863159 C19.0285629 0.16352339 22.74032905 0.20686465 26.45214844 0.25537109 C31.212533 0.31628133 35.97267035 0.34938802 40.73335648 0.37542915 C44.39662415 0.39963957 48.05952181 0.44183038 51.72255707 0.48916245 C53.47840117 0.50903766 55.23432979 0.52250749 56.99027252 0.5294838 C59.43948758 0.54124052 61.88710169 0.57797063 64.3359375 0.62109375 C65.42535141 0.61826134 65.42535141 0.61826134 66.53677368 0.6153717 C69.47479006 0.68937095 71.4301143 0.82316811 73.78012085 2.66545105 C75.46516442 6.44619838 75.9760574 10.22745306 76.54736328 14.30883789 C76.75542854 15.69323814 76.75542854 15.69323814 76.96769714 17.10560608 C77.42546498 20.17026833 77.86651262 23.23709794 78.30761719 26.30419922 C78.6266145 28.46160532 78.9466708 30.61885508 79.26773071 32.7759552 C80.11455035 38.48450777 80.94735714 44.19501937 81.77716064 49.90606689 C82.60487571 55.58747836 83.44482012 61.2670766 84.28417969 66.94677734 C85.41860301 74.62965405 86.54929596 82.31305882 87.67464066 89.99727058 C90.02951222 106.07310253 92.44979721 122.13857425 94.90917969 138.19873047 C99.80196394 139.32062093 104.69495416 140.4416071 109.58813477 141.56176758 C111.25160273 141.94270579 112.91501484 142.32388804 114.57836914 142.70532227 C116.97364783 143.25455358 119.36912816 143.8028977 121.76464844 144.35107422 C122.50442429 144.52090317 123.24420013 144.69073212 124.00639343 144.8657074 C134.85181941 147.89993601 134.85181941 147.89993601 145.23339844 145.22607422 C157.27452741 134.86967581 161.53900011 120.63934284 166.54833984 106.10839844 C168.54715351 100.32243385 170.73892186 94.6095169 172.90917969 88.88623047 C173.59734632 87.03621789 174.284883 85.18597081 174.97167969 83.33544922 C176.86951347 78.25680728 178.87260538 73.22313802 180.90917969 68.19873047 C173.60461968 72.74282557 173.60461968 72.74282557 166.53027344 77.63232422 C165.96848389 78.03781494 165.40669434 78.44330566 164.82788086 78.86108398 C163.22800895 80.02371219 161.63864551 81.20075957 160.04980469 82.37841797 C152.79171994 86.58521833 145.13383519 84.91486602 137.15917969 83.94873047 C135.9686499 83.80959229 134.77812012 83.6704541 133.55151367 83.52709961 C126.34354048 82.66578777 119.14820873 81.72998718 111.97167969 80.63623047 C111.20436523 80.52182617 110.43705078 80.40742187 109.64648438 80.28955078 C106.03680406 79.70798202 103.11922879 78.92273566 99.90917969 77.19873047 C99.71740477 62.72667288 100.2535436 48.43986684 101.34667969 34.01123047 C101.4834048 32.12000184 101.61947403 30.22872568 101.75488281 28.33740234 C102.43090122 19.02246147 102.43090122 19.02246147 102.71505737 15.60586548 C102.85271599 13.8988857 102.97006825 12.19021332 103.07327271 10.48080444 C103.17005814 9.14561264 103.17005814 9.14561264 103.26879883 7.78344727 C103.32000381 6.97715378 103.3712088 6.17086029 103.42396545 5.34013367 C104.03677196 2.63562558 104.69365777 1.86137522 106.90917969 0.19873047 C109.64378357 -0.17599964 109.64378357 -0.17599964 113.02026367 -0.17549133 C114.2990036 -0.18250565 115.57774353 -0.18951996 116.89523315 -0.19674683 C118.31524814 -0.18931886 119.73526158 -0.1815877 121.15527344 -0.17358398 C122.64836887 -0.17601153 124.14146269 -0.17973049 125.634552 -0.18464661 C129.69238416 -0.19406438 133.74997548 -0.18462284 137.80778885 -0.17131448 C142.05048924 -0.16001177 146.29317756 -0.16410657 150.53588867 -0.1660614 C157.66133568 -0.16694475 164.78668762 -0.15585544 171.91210938 -0.13745117 C180.15493976 -0.11628291 188.39763084 -0.11277342 196.6404829 -0.11901313 C204.56357351 -0.12470416 212.48661497 -0.11906421 220.40969849 -0.10783958 C223.78444323 -0.10319013 227.15915795 -0.10232124 230.53390503 -0.10442543 C234.50656733 -0.10630652 238.47908749 -0.0982183 242.45171738 -0.08236504 C243.91143074 -0.07811581 245.3711585 -0.07727591 246.8308754 -0.08005524 C248.81995538 -0.0832684 250.80904366 -0.07298621 252.7980957 -0.06196594 C253.91233414 -0.05991307 255.02657257 -0.0578602 256.17457581 -0.05574512 C258.90917969 0.19873047 258.90917969 0.19873047 261.90917969 2.19873047 C262.62964594 8.03597748 261.0116087 12.32336209 258.78417969 17.57373047 C256.36473051 23.41340098 254.14852592 29.29328545 252.06933594 35.26123047 C249.32499949 43.12141592 246.37653657 50.88647935 243.33175659 58.63458252 C241.80188978 62.52854221 240.28212987 66.426452 238.76074219 70.32373047 C238.444655 71.13274811 238.12856781 71.94176575 237.80290222 72.77529907 C234.28694727 81.77968672 230.81378337 90.80044139 227.34667969 99.82373047 C227.03445465 100.63616211 226.72222961 101.44859375 226.40054321 102.28564453 C218.00486182 124.1356134 209.63156051 145.99398824 201.34667969 167.88623047 C195.11009467 184.35886358 188.73527291 200.77738716 182.35644531 217.1953125 C181.06505787 220.51929463 179.77469005 223.8436709 178.48513794 227.16836548 C177.97817307 228.47510153 177.47091223 229.7817228 176.96334839 231.08822632 C173.96879445 238.79873768 171.03461597 246.52815996 168.17578125 254.2902832 C159.62296794 277.48494221 159.62296794 277.48494221 154.90917969 282.19873047 C152.42448425 282.47961426 152.42448425 282.47961426 149.25366211 282.52099609 C148.06870651 282.54021118 146.88375092 282.55942627 145.66288757 282.57922363 C144.37646866 282.58772339 143.09004974 282.59622314 141.76464844 282.60498047 C140.44757401 282.61638062 139.13049957 282.62778076 137.77351379 282.63952637 C134.9817246 282.66054706 132.19005057 282.67223107 129.39819336 282.67919922 C125.82655853 282.69015671 122.25645358 282.73817773 118.68529797 282.79514313 C115.27427758 282.84144081 111.86346676 282.84529828 108.45214844 282.85498047 C106.5316291 282.89202087 106.5316291 282.89202087 104.5723114 282.92980957 C95.85780502 282.88601716 95.85780502 282.88601716 91.90673828 280.0234375 C88.94257238 275.2036368 87.09389659 269.63985491 85.14497566 264.35283279 C84.12228839 261.57986846 83.07260348 258.81735422 82.02464581 256.05386162 C81.47521331 254.60441594 80.92708784 253.15447419 80.38022327 251.70405769 C77.56184207 244.23833144 74.60700721 236.8296286 71.63183594 229.42529297 C71.09398541 228.08371534 70.55625158 226.74209093 70.01863098 225.40042114 C68.91246717 222.64083798 67.80534409 219.88164239 66.69747925 217.1227417 C63.64055436 209.5094892 60.59163673 201.89302641 57.54199219 194.27685547 C57.22724127 193.49093899 56.91249035 192.70502251 56.58820152 191.89529037 C49.47559591 174.13418153 42.40625353 156.35597267 35.34667969 138.57373047 C34.74540466 137.05934547 34.14412699 135.54496151 33.54284668 134.03057861 C30.24018254 125.71215965 26.93860073 117.39331144 23.63754272 109.07425499 C18.71355968 96.66533469 13.78780236 84.25711861 8.86169147 71.84904289 C7.14807833 67.53263545 5.434796 63.216097 3.72201633 58.89935875 C3.18555461 57.5475499 2.64893215 56.19580482 2.11214352 54.84412575 C0.82918186 51.61340952 -0.45185094 48.38196303 -1.72810364 45.14859009 C-4.13521416 39.06307279 -6.58018778 32.99883576 -9.11279297 26.96435547 C-9.58699173 25.8212793 -10.06119049 24.67820312 -10.54975891 23.50048828 C-11.43615898 21.36903827 -12.33548468 19.24289644 -13.25041199 17.12353516 C-15.52735435 11.61638614 -16.66578675 8.02332544 -15.09082031 2.19873047 C-9.96515466 0.50819799 -5.40906043 -0.07725279 0 0 Z " fill="#A3E52D" transform="translate(27.0908203125,8.80126953125)"/>
<path d="M0 0 C1.16473343 0.00455452 1.16473343 0.00455452 2.35299683 0.00920105 C4.89797812 0.02239408 7.44247601 0.05103491 9.98730469 0.08154297 C11.7637299 0.09757587 13.54015824 0.11326685 15.31658936 0.12863159 C19.0285629 0.16352339 22.74032905 0.20686465 26.45214844 0.25537109 C31.212533 0.31628133 35.97267035 0.34938802 40.73335648 0.37542915 C44.39662415 0.39963957 48.05952181 0.44183038 51.72255707 0.48916245 C53.47840117 0.50903766 55.23432979 0.52250749 56.99027252 0.5294838 C59.43948758 0.54124052 61.88710169 0.57797063 64.3359375 0.62109375 C65.42535141 0.61826134 65.42535141 0.61826134 66.53677368 0.6153717 C69.47479006 0.68937095 71.4301143 0.82316811 73.78012085 2.66545105 C75.46516442 6.44619838 75.9760574 10.22745306 76.54736328 14.30883789 C76.75542854 15.69323814 76.75542854 15.69323814 76.96769714 17.10560608 C77.42546498 20.17026833 77.86651262 23.23709794 78.30761719 26.30419922 C78.6266145 28.46160532 78.9466708 30.61885508 79.26773071 32.7759552 C80.11455035 38.48450777 80.94735714 44.19501937 81.77716064 49.90606689 C82.60487571 55.58747836 83.44482012 61.2670766 84.28417969 66.94677734 C85.41860301 74.62965405 86.54929596 82.31305882 87.67464066 89.99727058 C90.02951222 106.07310253 92.44979721 122.13857425 94.90917969 138.19873047 C99.80196394 139.32062093 104.69495416 140.4416071 109.58813477 141.56176758 C111.25160273 141.94270579 112.91501484 142.32388804 114.57836914 142.70532227 C116.97364783 143.25455358 119.36912816 143.8028977 121.76464844 144.35107422 C122.50442429 144.52090317 123.24420013 144.69073212 124.00639343 144.8657074 C132.87433997 147.09079056 132.87433997 147.09079056 141.90917969 147.19873047 C144.41579025 145.51747615 146.33780825 143.43697116 148.34667969 141.19873047 C149.15782227 140.34021484 149.15782227 140.34021484 149.98535156 139.46435547 C151.30980955 138.05785141 152.61183568 136.63028248 153.90917969 135.19873047 C154.89917969 135.52873047 155.88917969 135.85873047 156.90917969 136.19873047 C155.89324007 138.84017347 154.87729517 141.48161443 153.86132812 144.12304688 C152.96605884 146.4508129 152.07087856 148.77861316 151.17578125 151.10644531 C148.86239787 157.12237215 146.54773158 163.13779762 144.22949219 169.15185547 C138.89068694 182.9986746 138.89068694 182.9986746 133.65917969 196.88623047 C131.36638674 203.03479071 128.96423215 209.12960105 126.49902344 215.21044922 C123.36790221 223.00461213 120.41026751 230.86804494 117.44117737 238.72502136 C116.2608833 241.84123153 115.07123362 244.95382683 113.88012695 248.06591797 C113.27233697 249.6601212 112.66852014 251.25584462 112.06860352 252.85302734 C104.72495033 272.38295982 104.72495033 272.38295982 97.90917969 279.19873047 C94.46752648 278.8457404 92.84045431 278.15291355 89.90917969 276.19873047 C88.67234802 273.63973999 88.67234802 273.63973999 87.44604492 270.36035156 C86.98126236 269.13563141 86.5164798 267.91091125 86.03761292 266.64907837 C85.79283266 265.99089741 85.54805241 265.33271645 85.29585457 264.65459061 C84.24801652 261.83863077 83.178225 259.03118305 82.10930157 256.22317314 C81.5491359 254.75156389 80.98998387 253.27956844 80.43179798 251.80720711 C77.5860574 244.31120957 74.61991169 236.86545692 71.63183594 229.42529297 C71.09418325 228.0840268 70.55661188 226.74272803 70.01911926 225.40139771 C68.91277121 222.64149771 67.80547242 219.88198164 66.69747925 217.1227417 C63.64055436 209.5094892 60.59163673 201.89302641 57.54199219 194.27685547 C57.22724127 193.49093899 56.91249035 192.70502251 56.58820152 191.89529037 C49.47559591 174.13418153 42.40625353 156.35597267 35.34667969 138.57373047 C34.74540466 137.05934547 34.14412699 135.54496151 33.54284668 134.03057861 C30.24018254 125.71215965 26.93860073 117.39331144 23.63754272 109.07425499 C18.71355968 96.66533469 13.78780236 84.25711861 8.86169147 71.84904289 C7.14807833 67.53263545 5.434796 63.216097 3.72201633 58.89935875 C3.18555461 57.5475499 2.64893215 56.19580482 2.11214352 54.84412575 C0.82918186 51.61340952 -0.45185094 48.38196303 -1.72810364 45.14859009 C-4.13521416 39.06307279 -6.58018778 32.99883576 -9.11279297 26.96435547 C-9.58699173 25.8212793 -10.06119049 24.67820312 -10.54975891 23.50048828 C-11.43615898 21.36903827 -12.33548468 19.24289644 -13.25041199 17.12353516 C-15.52735435 11.61638614 -16.66578675 8.02332544 -15.09082031 2.19873047 C-9.96515466 0.50819799 -5.40906043 -0.07725279 0 0 Z " fill="#010201" transform="translate(27.0908203125,8.80126953125)"/>
<path d="M0 0 C1.27873993 -0.00701431 2.55747986 -0.01402863 3.87496948 -0.02125549 C5.29498447 -0.01382753 6.7149979 -0.00609637 8.13500977 0.00190735 C9.6281052 -0.0005202 11.12119901 -0.00423916 12.61428833 -0.00915527 C16.67212048 -0.01857304 20.72971181 -0.0091315 24.78752518 0.00417686 C29.03022556 0.01547956 33.27291389 0.01138476 37.515625 0.00942993 C44.64107201 0.00854658 51.76642395 0.01963589 58.8918457 0.03804016 C67.13467609 0.05920843 75.37736717 0.06271791 83.62021923 0.0564782 C91.54330984 0.05078717 99.46635129 0.05642712 107.38943481 0.06765175 C110.76417956 0.0723012 114.13889428 0.07317009 117.51364136 0.0710659 C121.48630366 0.06918481 125.45882381 0.07727304 129.4314537 0.0931263 C130.89116706 0.09737553 132.35089483 0.09821542 133.81061172 0.0954361 C135.7996917 0.09222294 137.78877998 0.10250513 139.77783203 0.11352539 C140.89207047 0.11557826 142.0063089 0.11763113 143.15431213 0.11974621 C145.88891602 0.3742218 145.88891602 0.3742218 148.88891602 2.3742218 C149.67576855 8.41447216 147.80311805 12.99078284 145.51391602 18.4367218 C144.87987522 19.98960627 144.24703653 21.54298218 143.61547852 23.09687805 C143.16736816 24.18960022 143.16736816 24.18960022 142.71020508 25.30439758 C141.6568002 27.95920334 140.75131713 30.65199607 139.88891602 33.3742218 C139.22891602 33.3742218 138.56891602 33.3742218 137.88891602 33.3742218 C139.20891602 28.0942218 140.52891602 22.8142218 141.88891602 17.3742218 C142.54891602 17.3742218 143.20891602 17.3742218 143.88891602 17.3742218 C143.88891602 16.0542218 143.88891602 14.7342218 143.88891602 13.3742218 C144.54891602 13.3742218 145.20891602 13.3742218 145.88891602 13.3742218 C146.21891602 10.4042218 146.54891602 7.4342218 146.88891602 4.3742218 C96.39891602 4.3742218 45.90891602 4.3742218 -6.11108398 4.3742218 C-6.76747928 7.6561983 -7.24929443 10.33225267 -7.39233398 13.58906555 C-7.4484082 14.74245422 -7.4484082 14.74245422 -7.50561523 15.91914368 C-7.54041992 16.70869446 -7.57522461 17.49824524 -7.61108398 18.3117218 C-7.83697202 23.41093504 -8.14292084 28.34784149 -9.11108398 33.3742218 C-11.11108398 31.3742218 -11.11108398 31.3742218 -11.12280273 27.5929718 C-11.02645166 26.01929361 -10.91768162 24.44634214 -10.79858398 22.8742218 C-10.74299316 22.06138733 -10.68740234 21.24855286 -10.63012695 20.41108704 C-10.51705764 18.79670845 -10.39900055 17.18267044 -10.27563477 15.56904602 C-10.13819866 13.73588492 -10.02584849 11.90086539 -9.91967773 10.06562805 C-9.8590918 9.19808899 -9.79850586 8.33054993 -9.73608398 7.4367218 C-9.68709961 6.70582336 -9.63811523 5.97492493 -9.58764648 5.22187805 C-8.26696977 0.10154948 -4.71875841 -0.00071038 0 0 Z " fill="#CBF463" transform="translate(140.111083984375,8.625778198242188)"/>
<path d="M0 0 C0 3.96 0 7.92 0 12 C-0.66 12 -1.32 12 -2 12 C-2 12.66 -2 13.32 -2 14 C-1.34 14 -0.68 14 0 14 C0 15.32 0 16.64 0 18 C-0.66 18 -1.32 18 -2 18 C-2 18.66 -2 19.32 -2 20 C-2.66 20 -3.32 20 -4 20 C-4 21.32 -4 22.64 -4 24 C-4.99 24.33 -5.98 24.66 -7 25 C13.295 25.495 13.295 25.495 34 26 C34 26.33 34 26.66 34 27 C26.22271813 27.24402106 18.44503746 27.45655088 10.66625977 27.64697266 C8.01892538 27.71552362 5.37176896 27.79134205 2.72485352 27.87451172 C-1.07512701 27.99266058 -4.87497672 28.08484556 -8.67578125 28.171875 C-9.86335526 28.21439392 -11.05092926 28.25691284 -12.27449036 28.30072021 C-13.37540512 28.32104309 -14.47631989 28.34136597 -15.6105957 28.36230469 C-16.58100296 28.38895203 -17.55141022 28.41559937 -18.55122375 28.4430542 C-21 28 -21 28 -22.83683777 25.97735596 C-23.2206813 25.32482849 -23.60452484 24.67230103 -24 24 C-21.69 24.33 -19.38 24.66 -17 25 C-13.19652748 20.55608022 -10.56026325 16.28165755 -8.4375 10.8125 C-4.2136536 0 -4.2136536 0 0 0 Z " fill="#A2E52D" transform="translate(142,262)"/>
<path d="M0 0 C0 0.66 0 1.32 0 2 C49.5 2 99 2 150 2 C150 2.33 150 2.66 150 3 C99.51 3.33 49.02 3.66 -3 4 C-3.6563953 7.28197649 -4.13821044 9.95803087 -4.28125 13.21484375 C-4.33732422 14.36823242 -4.33732422 14.36823242 -4.39453125 15.54492188 C-4.42933594 16.33447266 -4.46414062 17.12402344 -4.5 17.9375 C-4.72588804 23.03671324 -5.03183686 27.97361969 -6 33 C-8 31 -8 31 -8.01171875 27.21875 C-7.91536768 25.6450718 -7.80659763 24.07212034 -7.6875 22.5 C-7.63190918 21.68716553 -7.57631836 20.87433105 -7.51904297 20.03686523 C-7.40597365 18.42248665 -7.28791656 16.80844864 -7.16455078 15.19482422 C-7.02711468 13.36166312 -6.9147645 11.52664359 -6.80859375 9.69140625 C-6.74800781 8.82386719 -6.68742188 7.95632812 -6.625 7.0625 C-6.57601562 6.33160156 -6.52703125 5.60070312 -6.4765625 4.84765625 C-5.50428224 1.07807788 -3.78521793 0 0 0 Z " fill="#ABD952" transform="translate(137,9)"/>
<path d="M0 0 C0.99 0.66 1.98 1.32 3 2 C-4.77480916 23.77480916 -4.77480916 23.77480916 -10 29 C-12.51834106 29.24050903 -12.51834106 29.24050903 -15.73486328 29.22705078 C-16.93595734 29.22689972 -18.13705139 29.22674866 -19.37454224 29.22659302 C-20.67664642 29.21627045 -21.97875061 29.20594788 -23.3203125 29.1953125 C-24.66266673 29.19158276 -26.00502367 29.18873561 -27.34738159 29.18673706 C-30.882014 29.17909744 -34.41648228 29.1594463 -37.9510498 29.1373291 C-41.5571877 29.11687765 -45.16335209 29.10773685 -48.76953125 29.09765625 C-55.84642135 29.0762006 -62.92319997 29.04206079 -70 29 C-67.36209266 26.36209266 -66.13150918 26.72898064 -62.44873047 26.68115234 C-60.70715164 26.65134781 -60.70715164 26.65134781 -58.9303894 26.62094116 C-57.67203278 26.60938995 -56.41367615 26.59783875 -55.1171875 26.5859375 C-53.19037643 26.55688828 -53.19037643 26.55688828 -51.22463989 26.5272522 C-47.80852465 26.47586059 -44.39236993 26.43627286 -40.97607422 26.39910889 C-37.49046001 26.35911302 -34.00501097 26.30800062 -30.51953125 26.2578125 C-23.6798081 26.16097025 -16.83997904 26.0765922 -10 26 C-10 25.34 -10 24.68 -10 24 C-10.66 24 -11.32 24 -12 24 C-11.33333333 21.33333333 -10.66666667 18.66666667 -10 16 C-9.34 16 -8.68 16 -8 16 C-8 16.66 -8 17.32 -8 18 C-7.34 18 -6.68 18 -6 18 C-5.34 15.36 -4.68 12.72 -4 10 C-3.34 10 -2.68 10 -2 10 C-2 8.02 -2 6.04 -2 4 C-1.34 4 -0.68 4 0 4 C0 2.68 0 1.36 0 0 Z " fill="#B5F148" transform="translate(192,262)"/>
<path d="M0 0 C0.33 0 0.66 0 1 0 C1 3.96 1 7.92 1 12 C1.66 12 2.32 12 3 12 C3 17.28 3 22.56 3 28 C1.68 28 0.36 28 -1 28 C-1 30.64 -1 33.28 -1 36 C-1.99 36 -2.98 36 -4 36 C-3.72308247 30.80337737 -3.43590844 25.60749796 -3.13671875 20.41210938 C-3.05030598 18.88754121 -2.96661538 17.36281415 -2.88671875 15.83789062 C-2.78676154 13.93315051 -2.67497505 12.02904194 -2.5625 10.125 C-2.47162109 8.48917969 -2.47162109 8.48917969 -2.37890625 6.8203125 C-2.01307742 4.09733912 -1.39660006 2.34086002 0 0 Z " fill="#A8E440" transform="translate(131,36)"/>
<path d="M0 0 C0.99 0 1.98 0 3 0 C4.33199013 3.99597038 3.28217789 5.53181703 1.76171875 9.42578125 C1.52089066 10.05099167 1.28006256 10.67620209 1.03193665 11.32035828 C0.2591866 13.32125424 -0.52623104 15.31688252 -1.3125 17.3125 C-2.08528723 19.29839187 -2.85545261 21.28528061 -3.62480164 23.27250671 C-4.32798147 25.08480355 -5.03748263 26.89464393 -5.74731445 28.7043457 C-6.91641716 31.78010433 -7.9843907 34.87064085 -9 38 C-9.33 38 -9.66 38 -10 38 C-10 35.36 -10 32.72 -10 30 C-9.34 30 -8.68 30 -8 30 C-7.18537505 25.34500026 -6.56606279 20.69023454 -6 16 C-5.01 16 -4.02 16 -3 16 C-2.67 13.36 -2.34 10.72 -2 8 C-1.34 8 -0.68 8 0 8 C0 5.36 0 2.72 0 0 Z " fill="#B7E55D" transform="translate(254,96)"/>
<path d="M0 0 C0.99 0.66 1.98 1.32 3 2 C-3.19148936 19.34042553 -3.19148936 19.34042553 -8 27 C-9.32 26.67 -10.64 26.34 -12 26 C-11.34 26 -10.68 26 -10 26 C-10 25.34 -10 24.68 -10 24 C-10.66 24 -11.32 24 -12 24 C-11.33333333 21.33333333 -10.66666667 18.66666667 -10 16 C-9.34 16 -8.68 16 -8 16 C-8 16.66 -8 17.32 -8 18 C-7.34 18 -6.68 18 -6 18 C-5.34 15.36 -4.68 12.72 -4 10 C-3.34 10 -2.68 10 -2 10 C-2 8.02 -2 6.04 -2 4 C-1.34 4 -0.68 4 0 4 C0 2.68 0 1.36 0 0 Z " fill="#B1E84B" transform="translate(192,262)"/>
<path d="M0 0 C0.33 1.32 0.66 2.64 1 4 C0.34 4 -0.32 4 -1 4 C-1.66 5.65 -2.32 7.3 -3 9 C-1.68 9 -0.36 9 1 9 C1 8.34 1 7.68 1 7 C1.66 7 2.32 7 3 7 C3 7.66 3 8.32 3 9 C16.86 9 30.72 9 45 9 C45 9.33 45 9.66 45 10 C37.22271813 10.24402106 29.44503746 10.45655088 21.66625977 10.64697266 C19.01892538 10.71552362 16.37176896 10.79134205 13.72485352 10.87451172 C9.92487299 10.99266058 6.12502328 11.08484556 2.32421875 11.171875 C1.13664474 11.21439392 -0.05092926 11.25691284 -1.27449036 11.30072021 C-2.37540512 11.32104309 -3.47631989 11.34136597 -4.6105957 11.36230469 C-6.06620659 11.4022757 -6.06620659 11.4022757 -7.55122375 11.4430542 C-10 11 -10 11 -11.83683777 8.97735596 C-12.2206813 8.32482849 -12.60452484 7.67230103 -13 7 C-10.69 7.33 -8.38 7.66 -6 8 C-4.02 5.36 -2.04 2.72 0 0 Z " fill="#A4E139" transform="translate(131,279)"/>
<path d="M0 0 C0.33 0 0.66 0 1 0 C1.52765538 7.05739074 -0.22886542 12.05898448 -3 18.5 C-3.57234375 19.87671875 -3.57234375 19.87671875 -4.15625 21.28125 C-5.09173555 23.52641531 -6.03973765 25.76534693 -7 28 C-7.66 27.67 -8.32 27.34 -9 27 C-8.67 22.05 -8.34 17.1 -8 12 C-7.34 12 -6.68 12 -6 12 C-6 12.66 -6 13.32 -6 14 C-5.34 14 -4.68 14 -4 14 C-4 12.68 -4 11.36 -4 10 C-3.34 10 -2.68 10 -2 10 C-2 8.02 -2 6.04 -2 4 C-1.34 4 -0.68 4 0 4 C0 2.68 0 1.36 0 0 Z " fill="#A4E335" transform="translate(218,194)"/>
<path d="M0 0 C0.99 0.33 1.98 0.66 3 1 C-0.02255462 4.37131092 -2.79809305 6.2985236 -7 8 C-10.7265625 8.109375 -10.7265625 8.109375 -14.625 7.75 C-15.91664063 7.64171875 -17.20828125 7.5334375 -18.5390625 7.421875 C-21.13455118 7.10549489 -23.50193158 6.73547192 -26 6 C-26 5.34 -26 4.68 -26 4 C-21.38 4 -16.76 4 -12 4 C-12 4.66 -12 5.32 -12 6 C-10.02 6 -8.04 6 -6 6 C-6 5.34 -6 4.68 -6 4 C-4.02 3.34 -2.04 2.68 0 2 C0 1.34 0 0.68 0 0 Z " fill="#AEE149" transform="translate(188,86)"/>
<path d="M0 0 C0.33 0 0.66 0 1 0 C1.45800102 6.26782873 -0.12394889 11.00175101 -2.375 16.8125 C-2.85066406 18.09930664 -2.85066406 18.09930664 -3.3359375 19.41210938 C-5.71702157 25.71702157 -5.71702157 25.71702157 -8 28 C-9.09658936 24.71023192 -8.79953138 23.28696233 -8 20 C-7.34 20 -6.68 20 -6 20 C-6 18.68 -6 17.36 -6 16 C-5.34 16 -4.68 16 -4 16 C-4 13.36 -4 10.72 -4 8 C-3.34 8 -2.68 8 -2 8 C-2 6.68 -2 5.36 -2 4 C-1.34 4 -0.68 4 0 4 C0 2.68 0 1.36 0 0 Z " fill="#B8E55F" transform="translate(234,152)"/>
<path d="M0 0 C-0.474375 1.11375 -0.94875 2.2275 -1.4375 3.375 C-3.58657298 9.70114442 -3.55465872 16.17978967 -3.7890625 22.79296875 C-3.92175321 26.26087944 -4.33605469 29.5877565 -5 33 C-7 31 -7 31 -7.01171875 27.21875 C-6.91536768 25.6450718 -6.80659763 24.07212034 -6.6875 22.5 C-6.63190918 21.68716553 -6.57631836 20.87433105 -6.51904297 20.03686523 C-6.40597365 18.42248665 -6.28791656 16.80844864 -6.16455078 15.19482422 C-6.02711468 13.36166312 -5.9147645 11.52664359 -5.80859375 9.69140625 C-5.74800781 8.82386719 -5.68742188 7.95632812 -5.625 7.0625 C-5.57601562 6.33160156 -5.52703125 5.60070312 -5.4765625 4.84765625 C-4.69835441 1.83050521 -3.18707722 0 0 0 Z " fill="#C0EA73" transform="translate(136,9)"/>
<path d="M0 0 C0.66 0.66 1.32 1.32 2 2 C-1.3 10.58 -4.6 19.16 -8 28 C-10 25 -10 25 -9.625 22.8125 C-9.41875 22.214375 -9.2125 21.61625 -9 21 C-8.34 21 -7.68 21 -7 21 C-7 19.02 -7 17.04 -7 15 C-6.34 15 -5.68 15 -5 15 C-4.855625 14.278125 -4.71125 13.55625 -4.5625 12.8125 C-4.04166667 10.20833333 -3.52083333 7.60416667 -3 5 C-2.34 5 -1.68 5 -1 5 C-0.67 3.35 -0.34 1.7 0 0 Z " fill="#B5E45A" transform="translate(277,43)"/>
<path d="M0 0 C0.66 0 1.32 0 2 0 C1.73731772 7.48644507 -0.64134474 13.64266801 -3.52734375 20.44921875 C-4.83506355 23.60231503 -5.96615754 26.74864038 -7 30 C-7.66 30 -8.32 30 -9 30 C-7.68 24.72 -6.36 19.44 -5 14 C-4.34 14 -3.68 14 -3 14 C-3 12.68 -3 11.36 -3 10 C-2.34 10 -1.68 10 -1 10 C-0.67 6.7 -0.34 3.4 0 0 Z " fill="#C6F568" transform="translate(287,12)"/>
<path d="M0 0 C0 3.96 0 7.92 0 12 C-0.66 12 -1.32 12 -2 12 C-2 10.68 -2 9.36 -2 8 C-2.99 8 -3.98 8 -5 8 C-5.66 9.98 -6.32 11.96 -7 14 C-7.66 14 -8.32 14 -9 14 C-5.24836601 0 -5.24836601 0 0 0 Z " fill="#A4E434" transform="translate(142,262)"/>
<path d="M0 0 C2.31 0 4.62 0 7 0 C7 0.66 7 1.32 7 2 C10.3 2 13.6 2 17 2 C17 2.66 17 3.32 17 4 C13.39360421 5.80319789 9.57221682 5.47193943 5.76171875 4.328125 C3.82316649 3.59815505 1.90910734 2.80383467 0 2 C0 1.34 0 0.68 0 0 Z " fill="#B2E057" transform="translate(127,84)"/>
<path d="M0 0 C-1.65 4.29 -3.3 8.58 -5 13 C-7 10 -7 10 -6.625 7.8125 C-6.41875 7.214375 -6.2125 6.61625 -6 6 C-6.66 6 -7.32 6 -8 6 C-8 4.68 -8 3.36 -8 2 C-7.34 2 -6.68 2 -6 2 C-6 1.34 -6 0.68 -6 0 C-2.25 -1.125 -2.25 -1.125 0 0 Z " fill="#AFE54C" transform="translate(204,240)"/>
<path d="M0 0 C0.66 0 1.32 0 2 0 C2.98120464 3.05263664 2.98120464 4.94736336 2 8 C1.01 7.67 0.02 7.34 -1 7 C-0.67 6.34 -0.34 5.68 0 5 C-2.97 6.65 -5.94 8.3 -9 10 C-9.33 9.34 -9.66 8.68 -10 8 C-9.34 8 -8.68 8 -8 8 C-8 7.34 -8 6.68 -8 6 C-7.34 6 -6.68 6 -6 6 C-6 5.34 -6 4.68 -6 4 C-5.34 4 -4.68 4 -4 4 C-4 3.34 -4 2.68 -4 2 C-2.68 2 -1.36 2 0 2 C0 1.34 0 0.68 0 0 Z " fill="#B1E352" transform="translate(208,72)"/>
<path d="M0 0 C0.99 0.66 1.98 1.32 3 2 C2.05023017 4.64920076 1.09072092 7.29411973 0.125 9.9375 C-0.14441406 10.69224609 -0.41382813 11.44699219 -0.69140625 12.22460938 C-2.7734375 17.88671875 -2.7734375 17.88671875 -5 19 C-4.505 14.545 -4.505 14.545 -4 10 C-3.34 10 -2.68 10 -2 10 C-2 8.02 -2 6.04 -2 4 C-1.34 4 -0.68 4 0 4 C0 2.68 0 1.36 0 0 Z " fill="#B9E761" transform="translate(192,262)"/>
<path d="M0 0 C0.33 0 0.66 0 1 0 C1.51137226 6.90352555 -0.13035626 11.74827614 -3 18 C-3.66 17.67 -4.32 17.34 -5 17 C-4.67 14.69 -4.34 12.38 -4 10 C-3.34 10 -2.68 10 -2 10 C-2 8.02 -2 6.04 -2 4 C-1.34 4 -0.68 4 0 4 C0 2.68 0 1.36 0 0 Z " fill="#B6E55C" transform="translate(218,194)"/>
<path d="M0 0 C0.33 0 0.66 0 1 0 C1.125 5.75 1.125 5.75 0 8 C0.99 8 1.98 8 3 8 C2.67 9.98 2.34 11.96 2 14 C1.01 13.67 0.02 13.34 -1 13 C-1 12.01 -1 11.02 -1 10 C-1.66 10 -2.32 10 -3 10 C-2.01 6.7 -1.02 3.4 0 0 Z " fill="#9CD535" transform="translate(171,176)"/>
<path d="M0 0 C0 2.31 0 4.62 0 7 C-0.66 7 -1.32 7 -2 7 C-2 7.66 -2 8.32 -2 9 C-2.66 9 -3.32 9 -4 9 C-4.33 10.32 -4.66 11.64 -5 13 C-5.66 12.34 -6.32 11.68 -7 11 C-6.38348417 9.3509698 -5.75652258 7.70584159 -5.125 6.0625 C-4.77695313 5.14597656 -4.42890625 4.22945313 -4.0703125 3.28515625 C-2.53162393 0 -2.53162393 0 0 0 Z " fill="#B5E452" transform="translate(196,115)"/>
<path d="M0 0 C0.66 0.66 1.32 1.32 2 2 C0.35 6.29 -1.3 10.58 -3 15 C-5 11 -5 11 -4.625 8.75 C-4.41875 8.1725 -4.2125 7.595 -4 7 C-3.34 7 -2.68 7 -2 7 C-2 5.02 -2 3.04 -2 1 C-1.34 0.67 -0.68 0.34 0 0 Z " fill="#B9E561" transform="translate(224,181)"/>
<path d="M0 0 C0.33 1.32 0.66 2.64 1 4 C0.34 4 -0.32 4 -1 4 C-1.66 5.98 -2.32 7.96 -3 10 C-5.31 10.33 -7.62 10.66 -10 11 C-10.99 9.68 -11.98 8.36 -13 7 C-10.69 7.33 -8.38 7.66 -6 8 C-4.02 5.36 -2.04 2.72 0 0 Z " fill="#89AD3D" transform="translate(131,279)"/>
<path d="M0 0 C0.66 0.33 1.32 0.66 2 1 C1.54738642 2.43931117 1.08767021 3.87638999 0.625 5.3125 C0.36976563 6.11300781 0.11453125 6.91351563 -0.1484375 7.73828125 C-1 10 -1 10 -3 13 C-4.25686099 9.22941703 -3.82745636 6.86146303 -3 3 C-1.4375 1.0625 -1.4375 1.0625 0 0 Z " fill="#BBE765" transform="translate(207,225)"/>
<path d="M0 0 C0.33 0 0.66 0 1 0 C1.34615998 5.65394631 0.43425238 9.03006806 -2 14 C-2.66 13.34 -3.32 12.68 -4 12 C-4 10.68 -4 9.36 -4 8 C-3.34 8 -2.68 8 -2 8 C-2 6.68 -2 5.36 -2 4 C-1.34 4 -0.68 4 0 4 C0 2.68 0 1.36 0 0 Z " fill="#AFE14D" transform="translate(234,152)"/>
<path d="M0 0 C0.66 0.33 1.32 0.66 2 1 C1.34 3.97 0.68 6.94 0 10 C-0.66 10 -1.32 10 -2 10 C-2 11.32 -2 12.64 -2 14 C-2.99 13.67 -3.98 13.34 -5 13 C-3.35 8.71 -1.7 4.42 0 0 Z " fill="#B8E65F" transform="translate(200,98)"/>
<path d="M0 0 C3.96 0 7.92 0 12 0 C12 0.99 12 1.98 12 3 C8.37 3 4.74 3 1 3 C0.67 2.01 0.34 1.02 0 0 Z " fill="#B5E556" transform="translate(149,88)"/>
<path d="M0 0 C0.66 0.66 1.32 1.32 2 2 C0.35 6.29 -1.3 10.58 -3 15 C-3.33 15 -3.66 15 -4 15 C-3.67 11.7 -3.34 8.4 -3 5 C-2.34 5 -1.68 5 -1 5 C-0.67 3.35 -0.34 1.7 0 0 Z " fill="#C5F074" transform="translate(277,43)"/>
<path d="M0 0 C1.32 0 2.64 0 4 0 C4 1.98 4 3.96 4 6 C3.01 6 2.02 6 1 6 C0.67 6.66 0.34 7.32 0 8 C-0.66 8 -1.32 8 -2 8 C-1.34 5.36 -0.68 2.72 0 0 Z " fill="#9BD72D" transform="translate(144,246)"/>
<path d="M0 0 C1.1171875 1.671875 1.1171875 1.671875 2 4 C1.3203125 6.578125 1.3203125 6.578125 0.125 9.25 C-0.26429688 10.14203125 -0.65359375 11.0340625 -1.0546875 11.953125 C-1.36664063 12.62859375 -1.67859375 13.3040625 -2 14 C-2.66 13.67 -3.32 13.34 -4 13 C-3.34 10.03 -2.68 7.06 -2 4 C-1.34 4 -0.68 4 0 4 C0 2.68 0 1.36 0 0 Z " fill="#B9E464" transform="translate(262,80)"/>
<path d="M0 0 C-0.20496094 0.59167969 -0.40992188 1.18335938 -0.62109375 1.79296875 C-1.9997571 5.83660816 -3.31750847 9.76855249 -4 14 C-4.33 14 -4.66 14 -5 14 C-5.08114106 12.22992286 -5.13925505 10.45877902 -5.1875 8.6875 C-5.22230469 7.70136719 -5.25710937 6.71523437 -5.29296875 5.69921875 C-5 3 -5 3 -3.61328125 1.14453125 C-2 0 -2 0 0 0 Z " fill="#C5F36A" transform="translate(136,9)"/>
<path d="M0 0 C0.33 0 0.66 0 1 0 C1.30192308 7.85 1.30192308 7.85 -1 11 C-1.99 11.33 -2.98 11.66 -4 12 C-2.66666667 8 -1.33333333 4 0 0 Z " fill="#8DBC39" transform="translate(179,155)"/>
<path d="M0 0 C0.66 0.33 1.32 0.66 2 1 C0.515 4.96 0.515 4.96 -1 9 C-1.66 9 -2.32 9 -3 9 C-2.4140625 2.84765625 -2.4140625 2.84765625 -2 1 C-1.34 0.67 -0.68 0.34 0 0 Z " fill="#B7E758" transform="translate(242,135)"/>
<path d="M0 0 C1.32 0.33 2.64 0.66 4 1 C3.34 3.31 2.68 5.62 2 8 C1.34 7.67 0.68 7.34 0 7 C0 4.69 0 2.38 0 0 Z " fill="#ADE247" transform="translate(248,112)"/>
<path d="M0 0 C0.99 0 1.98 0 3 0 C4.2077558 3.62326739 3.54311128 4.64146369 2 8 C0 6 0 6 -0.125 2.875 C-0.08375 1.92625 -0.0425 0.9775 0 0 Z " fill="#AFE454" transform="translate(254,96)"/>
<path d="M0 0 C0.99 0.33 1.98 0.66 3 1 C0.51047079 3.66735273 -1.63408134 5.55746343 -5 7 C-5.33 6.01 -5.66 5.02 -6 4 C-4.02 3.34 -2.04 2.68 0 2 C0 1.34 0 0.68 0 0 Z " fill="#BDE569" transform="translate(188,86)"/>
<path d="M0 0 C0.66 0.33 1.32 0.66 2 1 C2 2.65 2 4.3 2 6 C1.34 6 0.68 6 0 6 C-0.33 7.32 -0.66 8.64 -1 10 C-2.46726798 6.18510326 -1.43336419 3.70988378 0 0 Z " fill="#B2E057" transform="translate(186,134)"/>
<path d="M0 0 C3.96 0.33 7.92 0.66 12 1 C12 1.33 12 1.66 12 2 C3.42857143 3.28571429 3.42857143 3.28571429 0 2 C0 1.34 0 0.68 0 0 Z " fill="#BDEA6B" transform="translate(162,90)"/>
<path d="M0 0 C0.66 0.33 1.32 0.66 2 1 C0.515 4.96 0.515 4.96 -1 9 C-1.66 8.67 -2.32 8.34 -3 8 C-1.125 2.25 -1.125 2.25 0 0 Z " fill="#BDE96E" transform="translate(212,213)"/>
<path d="M0 0 C1.125 1.6875 1.125 1.6875 2 4 C1.125 6.75 1.125 6.75 0 9 C-0.66 8.67 -1.32 8.34 -2 8 C-2 6.68 -2 5.36 -2 4 C-1.34 4 -0.68 4 0 4 C0 2.68 0 1.36 0 0 Z " fill="#B9E953" transform="translate(284,22)"/>
<path d="M0 0 C0.33 0 0.66 0 1 0 C0.67 2.64 0.34 5.28 0 8 C-0.99 8.33 -1.98 8.66 -3 9 C-2.01 6.03 -1.02 3.06 0 0 Z " fill="#92C038" transform="translate(136,267)"/>
<path d="M0 0 C2 2 2 2 2 6 C1.34 6 0.68 6 0 6 C0 6.66 0 7.32 0 8 C-0.66 8 -1.32 8 -2 8 C-1.34 5.36 -0.68 2.72 0 0 Z " fill="#99CF2E" transform="translate(174,168)"/>
<path d="M0 0 C0.33 0 0.66 0 1 0 C1.19622241 4.21878192 0.80230168 7.17010894 -1 11 C-1.33 11 -1.66 11 -2 11 C-2 8.69 -2 6.38 -2 4 C-1.34 4 -0.68 4 0 4 C0 2.68 0 1.36 0 0 Z " fill="#B2E154" transform="translate(266,70)"/>
</svg>
